<?xml version="1.0" encoding="utf-8"?>
<!-- Generator: Adobe Illustrator 26.5.0, SVG Export Plug-In . SVG Version: 6.00 Build 0)  -->
<svg version="1.1" id="图层_1" xmlns="http://www.w3.org/2000/svg" xmlns:xlink="http://www.w3.org/1999/xlink" x="0px" y="0px"
	 viewBox="0 0 443.45 361.66" style="enable-background:new 0 0 443.45 361.66;" xml:space="preserve">
<style type="text/css">
	.st0{fill:#FEFEFE;}
	.st1{fill:#4A6A90;}
	.st2{fill:#A4BDD3;}
	.st3{fill:#A2BBD2;}
	.st4{fill:#AEBFD2;}
	.st5{fill:#E8BEC2;}
	.st6{fill:#4A6A91;}
</style>
<g>
	<path class="st0" d="M221.73,359.4c-73.07,0-146.15-0.01-219.22,0.05c-2.04,0-2.51-0.46-2.51-2.51C0.06,238.8,0.06,120.65,0,2.5
		C0,0.46,0.46,0,2.5,0c146.15,0.06,292.3,0.06,438.44,0c2.04,0,2.51,0.46,2.51,2.5c-0.06,118.15-0.06,236.3,0,354.44
		c0,2.04-0.46,2.51-2.51,2.51C367.88,359.39,294.8,359.4,221.73,359.4z"/>
	<path class="st1" d="M105.26,205.57c-1.72,3.21-3.32,6.48-5.36,9.51c-2.01,2.08-2.2,5.43-7.21,5.41c-2.61-0.01-5.09-1.16-6.9-3.04
		c-0.32-0.33-0.64-0.66-0.96-0.98c-6.98-8.99-9.17-19.52-9.42-30.53c-0.14-6.14,0.72-12.26,2.39-18.21
		c0.75-2.66,0.69-3.01-2.03-3.94c-6.88-2.34-13.38-5.52-19.73-9c-0.83-0.68-1.67-1.35-2.66-1.79c-3.01-1.67-5.83-3.62-8.65-5.58
		c-6.2-4.5-12.06-9.42-17.25-15.06c-3.28-3.56-6.49-7.21-9.09-11.33c-2.84-4.36-5.62-8.75-7.78-13.5
		C5.3,96.97,3.07,85.82,4.14,74.03c0.12-1.3,0.68-2.42,1.17-3.58c1.32-2,3.39-2.73,5.58-2.99c13.94-1.7,27.46-0.21,40.49,5.28
		c5.37,2.27,10.5,4.95,15.41,8.05c1.23,0.82,2.38,1.74,3.65,2.5c5.15,4.25,10.45,8.34,14.94,13.33c3.28,4.05,6.7,8.01,9.58,12.37
		c5.31,8.01,9.5,16.59,12.69,25.65c1.49,4.73,1.9,4.89,5.61,1.63c1.07-0.94,2.25-1.74,3.31-2.69c2.26-2.1,4.26-4.43,6-6.97
		c0.6-0.77,1.43-1.36,1.73-2.35c1.2-2.05,2.64-3.94,3.8-6.01c4.35-7.11,8.03-14.59,12.31-21.74c3.25-5.43,6.48-10.87,10.5-15.79
		c6.77-8.85,14.96-16.18,24.12-22.46c4.64-2.71,3.76-2.39,0.65-5.58c-0.64-0.65-1.3-1.28-2.01-1.85
		c-3.73-3.69-7.42-7.33-11.15-11.01c-2.1-2.65-4.51-5.04-4.6-8.78c-0.1-4.01,1.77-6.93,4.69-9.28c5.89-4.73,12.59-8.02,19.64-10.66
		c11.52-4.22,23.55-5.87,35.67-6.93c7.14-0.62,14.3-0.97,21.47-0.85c2.9,0.05,5.79,0.45,8.7,0.29c4.45,0.46,8.94,0.41,13.37,1.09
		c9.79,1.15,19.53,2.6,28.89,5.89c3.84,1.35,7.49,3.16,11.28,4.63c1.71,0.66,3.46,0.99,5.31,0.94c13.09-0.34,25.7,2.5,38.15,6.11
		c11.28,3.28,22.37,7.16,33.22,11.68c4.95,2.58,10.07,4.84,14.98,7.51c1.07,0.57,2.13,1.14,3.2,1.71c3.49,1.99,6.66,4.47,10.11,6.53
		c9.58,7.18,17.61,15.77,24.13,25.83c5.8,8.94,7.77,18.58,6,29.04c-0.11,0.63-0.07,1.27-0.23,1.89
		c-2.38,14.48-6.19,28.58-11.39,42.3c-0.48,1.27-1.05,2.5-1.5,3.78c-1.72,3.37-3.23,6.83-4.47,10.4
		c-3.15,7.43-7.5,14.12-12.57,20.37c-3.51,4.33-7.22,8.48-11.52,12.06c-4.9,4.6-10.35,8.49-16,12.09
		c-3.97,2.25-7.78,4.79-11.98,6.62c-6.14,2.73-12.17,5.71-18.44,8.13c-1.18,0.45-1.29,1.12-0.96,2.07c0.44,1.26,0.89,2.53,1.79,3.57
		c5.36,11.88,10.65,23.79,15.88,35.73c0.04,0.32,0.08,0.63,0.11,0.95c0.75,1.05,1.19,2.28,1.85,3.38c1.67,3.6,3.16,7.29,4.88,10.87
		c6.99,15.92,14.1,31.78,21.16,47.67c0.57,1.49,1.22,2.96,1.85,4.43c1,2.31,1.47,2.34,2.91,0.33c0.21-0.29,0.36-0.61,0.55-0.92
		c3.25-4.94,6.95-9.44,12.05-12.63c3.2-2,6.55-3.05,10.32-2.04c4.86,2.9,6.39,6.5,5.2,12.15c-1.56,7.38-5.49,13.47-10.34,19.06
		c-1.07,1.23-2.28,2.33-3.45,3.46c-1.8,1.19-3.39,2.68-5.33,3.68c-4.93,2.56-8.17,2.2-12.3-1.43c-0.28-0.24-0.58-0.43-0.93-0.54
		c-2.2-1.3-3.38-3.36-4.24-5.66c-0.91-2.42-2.02-4.75-3.11-7.1c-0.92-2.61-2.21-5.05-3.28-7.6c-0.75-1.68-1.48-3.36-2.23-5.04
		c-2.9-6.63-5.98-13.18-8.76-19.86c-0.28-1.44-0.93-2.7-1.85-3.83c-2.36-5.57-4.83-11.09-7.34-16.59
		c-4.58-10.68-9.39-21.25-14.11-31.87c-0.63-1.4-1.19-2.84-2.01-4.15l0.01,0.02c-0.44-0.83-0.89-1.66-0.88-2.65
		c-1.79-4.74-3.82-9.38-6.27-13.83c-0.64-1.5-1.52-2.92-2-4.47c-0.46-1.48-2.08-2.28-3.55-1.77c-9.42,3.22-19.11,5.39-28.93,6.97
		c-8.31,1.34-16.7,2.16-25.08,2.95c-2.6-0.06-5.17,0.34-7.77,0.39c-0.28,0.1-0.57,0.15-0.87,0.16c-6.07-0.1-12.14,0.51-18.22,0.27
		c-1.44-0.06-2.68,0.4-3.86,1.1c-4.14,2.45-8.39,4.67-12.88,6.41c-1.78,0.69-2.6,2.09-3.26,3.76c-4.67,11.87-9.67,23.62-14.4,35.47
		c-4,9.63-7.85,19.33-11.92,28.93c-0.6,1-1.13,2.05-1.62,3.11c-0.33,0.88-0.65,1.77-0.98,2.65c-0.39,1.09-1.23,1.95-1.62,3.04
		c-2.32,2.99-5.25,4.04-9.01,3.25c-4.2-0.87-8.44-1.55-12.64-2.42c-7.08-1.62-14.25-2.73-21.36-4.18c-0.32-0.07-0.65-0.11-0.98-0.13
		c-2.35-0.16-2.57,0.04-1.78,2.16c1.06,2.86,2.13,5.72,3.22,8.58c1.25,5.34,2.79,10.67,0.38,16.09c-4.41,4.92-7.96,4.86-12.93-0.23
		c-5.57-6.86-7.83-15.14-10.03-23.45c-0.52-2.77-0.98-5.54-0.76-8.37c0.35-4.55,3.47-8.31,7.01-7.97c2.36,0.23,4.69-0.05,7.03,0.16
		c10.35,2.15,20.77,3.96,31.17,5.91c0.98,0.18,1.92,0.52,2.92,0.59c2.36,0.6,4.78,0.91,7.14,1.46c1.63,0.38,2.54-0.1,3.21-1.59
		c1.62-3.61,2.88-7.37,4.52-10.98c2.81-5.51,4.6-11.47,7.26-17.05c0.04-0.5,0.68-1.61,0.72-2.11c1.78-4.09,2.42-6.8,4.06-10.44
		c1.73-4.6,3.83-9.05,5.48-13.69c0.76-1.74,1.52-3.47,2.19-5.25c0.89-2.38,0.67-2.75-1.74-2.5c-3.42,0.35-6.84,0.35-10.26-0.04
		c-4.45-0.5-8.44-1.91-11.35-5.54c-0.91-1.31-1.4-2.8-1.85-4.32c-0.61-3.98-0.34-7.95,0.38-11.87c0.36-1.97-0.07-2.95-2.06-3.63
		c-4.78-1.63-9.46-3.56-14.05-5.69c-1.98-0.84-3.78-2.05-5.78-2.85c-2.19-1.1-4.47-1.98-6.68-3.02c-3.11-1.28-5.31-0.28-7.81,0.89
		c-1.99,0.42-3.84,1.3-5.86,1.61c-13.2,1.41-25.1-1.96-35.61-9.99c-3.79-2.9-4.85-6.98-3.14-10.51c1.16-2.4,3.31-3.77,5.54-5.01
		c1.42-0.79,2.92-1.45,4.36-2.22c1.07-0.57,1.16-1.18,0.26-2.08c-1.28-1.29-2.98-2.07-4.11-3.52c-1.54-1.79-3.67-2.9-5.26-4.66
		c-1.29-1.42-1.97-0.69-2.18,0.88c-0.83,6.25-2.11,12.4-4.19,18.37c-0.18,0.51-0.46,0.98-0.59,1.51"/>
	<path class="st2" d="M293.95,155.26c-4.81,0.14-5.02,2.64-6.24,7.16c-3.93,14.52-9.61,28.28-17.9,40.89
		c-4.66,7.55-10.71,13.89-17.25,19.81c-10.63,9.44-22.96,14.98-37.15,16.44c-2.3,0.24-4.51,0.03-6.74-0.16
		c-2.74-0.22-3.41-1.39-3.22-4.17c1.19-17.57,9.06-32.04,20.6-44.84c2.07-2.29,2.65-5.38,1.49-7.26c-1.85-3-5.59-3.38-8.51-1.04
		c-2.95,2.37-3.5,3.33-6.24,5.86c-0.21-0.17,0.05,0.25,0,0c-0.09-1.08-2.09,1.4-2.49,1.63c-11.77,6.69-24.64,8.31-37.86,7.99
		c-3.99-0.1-8.01-0.55-12.03-1.52c0.49,0.45,0.95,0.77,1.18,1.29c0.09,0.29-2.54-1.91-2.75-1.69c-4.8-2.03-6.07-3.09-10.41-5.84
		c-3.2-2.02-6.43-4.03-9.33-6.49c-0.89-0.85-1.99-1.4-2.94-2.18c-7.33-5.45-14.49-11.09-20.53-18.01
		c-5.72-5.08-11.15-3.27-13.17,4.41c-0.14,0.52-0.27,1.05-0.41,1.58c-0.58,3.91-0.83,7.87-1.24,11.79
		c-0.59,5.59-2.65,10.67-4.35,15.9c-0.81,2.52-2.15,4.8-3.31,7.16c-0.33,0.66-0.65,1.42-1.5,1.36c-0.89-0.06-1.01-0.96-1.28-1.59
		c-3.85-9.24-4.09-18.8-2.54-28.52c0.6-3.78,1.93-7.35,3.14-10.95c1.73-5.11,0.26-7.73-4.83-9.09
		c-13.65-3.66-25.87-10.21-37.14-18.64c-3.49-2.61-6.76-5.45-9.74-8.64c-7.72-7.14-14.08-15.35-18.61-24.84
		c-3.33-6.97-5.81-14.23-5.64-22.14c0.04-1.82,0.54-2.51,2.48-2.63c11.36-0.72,22.08,1.6,32.4,6.28
		c10.83,4.92,20.06,11.99,27.87,20.84c9.59,10.86,16.43,23.31,20.38,37.3c0.54,1.9,0.95,3.84,1.75,5.67
		c2.58,3.83,4.82,4.64,9.26,3.01c9.16-3.35,16.01-9.68,21.85-17.26c5.6-7.28,9.79-15.42,14.16-23.45c2.59-4.76,4.97-9.64,8.15-14.07
		c2.34-2.17,4.45-4.5,5.34-7.68c2.97-4.8,7.25-8.4,11.23-12.28c1.48-1.44,3.09-2.73,4.65-4.08c5.19-3.31,9.97-7.27,15.77-9.61
		c1.43-0.58,2.92-1,4.29-1.72c2.96-1.55,3.99-3.54,3.39-6.67c-0.4-2.1-2.46-4-5.24-3.94c-2.53,0.05-3.95-1.23-5.57-2.75
		c-5.18-4.84-10.33-9.7-15.27-14.77c-2.14-2.2-2.12-2.58,0.44-4.28c7.28-4.84,15.36-7.76,23.8-9.74c15.66-3.68,31.6-4.37,47.59-3.95
		c9.23,0.24,18.46,0.91,27.58,2.51c0.87,0.15,2.37-0.25,2.43,1.12c0.06,1.1-1.35,0.94-2.12,1.26c-1.18,0.48-2.37,0.9-3.41,1.66
		c-2.59,1.9-3.49,4.59-2.35,7.1c1.01,2.22,3.89,3.63,6.69,2.97c4.76-1.13,9.44-2.52,14.32-3.17c18.25-2.44,36.16-1.1,53.78,4.3
		c4.41,1.35,8.8,2.81,13.33,3.72l0.01-0.01c10.9,4.23,21.88,8.27,32.21,13.83c2.8,1.5,5.55,3.08,8.2,4.83
		c8.71,5.16,15.58,12.34,21.97,20.04c2.67,3.21,4.68,6.87,6.92,10.37c0.68,0.82,0.68,1.64,0.7,2.82c-0.26,0.16,0.28,0.11,0,0
		c-3.3-2.27-7.21-1.8-10.83-2c-18.34-0.99-36.26,1.27-53.53,7.79c-14.62,5.51-27.71,13.43-39.25,24.03
		c-10.43,9.58-18.7,20.72-25.24,33.21"/>
	<path class="st3" d="M150.44,204.33c-8,1.56-15.1-0.51-21.89-4c-1.22-0.63-0.76-1.33,0.15-1.72c2.26-0.96,4.49-1.95,6.45-3.46
		c0.53-0.41,1-0.23,1.49,0.09C141.24,198.29,145.84,201.31,150.44,204.33z"/>
	<path class="st4" d="M158.63,88.91c0.37,0.05,1.4-0.54,0.93,0.42c-1.44,2.96-3.52,5.51-5.77,7.91c-0.27,0.29-0.46-0.31-0.51-0.64
		C154.85,93.88,156.38,91.14,158.63,88.91z"/>
	<path class="st0" d="M380.14,192.54c-0.54,0.37-1.08,0.75-1.62,1.12c-1.29,0.89-2.59,1.79-3.88,2.68c-0.89,0.55-1.78,1.1-2.68,1.65
		c-3.46,2-6.91,3.99-10.37,5.99c-1.83,0.9-3.66,1.79-5.5,2.69c-4.5,1.82-9,3.68-13.52,5.46c-9.42,3.7-19.04,6.73-28.96,8.79
		c-7.66,1.25-15.31,2.5-22.97,3.75c-6.82,0.53-13.63,1.08-20.45,1.58c-0.86,0.06-2.07,0.51-2.53-0.29
		c-0.55-0.97,0.75-1.44,1.27-2.09c1.96-2.46,3.96-4.89,5.95-7.34c1.65-2.35,3.3-4.7,4.95-7.05c4.11-5.56,7.22-11.65,9.76-18.06
		c1.77-4.18,3.55-8.37,5.32-12.55c2.61-5.52,4.63-11.24,5.02-17.37c0.17-2.68-1.95-5.6-4.31-5.87c-2.42-0.28-2.02-1.04-1.36-2.7
		c0.12-0.4,0.35-0.87,0.39-1.32c2.95-6.77,6.83-12.9,11.33-18.69c18.99-24.43,43.94-39.11,74.18-45.14
		c11.11-2.22,22.3-2.35,33.54-2.08c2.35,0.06,4.7,0.29,7.02,0.61c1.41,0.19,2.93,0.46,3.54,2.11c2.72,9.64,0.06,18.94-1.85,28.28
		c-1.36,6.63-3.47,13.06-5.28,19.57c-1.89,4.95-3.77,9.91-5.69,14.86c-2.57,6.65-5.9,12.92-9.57,19.02
		c-0.52,0.73-1.05,1.47-1.57,2.2C394.49,179.98,387.74,186.68,380.14,192.54z"/>
	<path class="st0" d="M211.62,189.8c-5.66,6.5-9.63,14.01-12.78,21.96c-0.85,2.14-1.41,2.67-3.81,1.78
		c-11.7-4.32-22.75-9.95-33.59-16.06c-0.97-0.6-2.11-0.97-3.06-2.45c9.57,1.89,18.82,2.48,28.09,1.25
		c9.26-1.22,18.22-3.53,26.3-9.11C212.86,188.74,211.88,189.06,211.62,189.8z"/>
	<path class="st5" d="M400.35,127.63c-2.78,7.7-8.08,13.23-15.01,17.33c-0.77,0.46-1.59,0.84-2.39,1.26
		c-0.28,0.19-0.55,0.17-0.8-0.05c-1.05-3.1-3.19-5.39-5.47-7.65c-3.68-3.64-3.31-6.15,1.14-8.82c4.7-2.82,9.89-4.06,15.3-4.36
		c2.52-0.14,5.06-0.32,7.59-0.09C401.4,126.17,400.43,126.84,400.35,127.63z"/>
	<path class="st6" d="M344.17,84.25c3.36-1.04,6.4-0.15,7.48,2.36c1.08,2.51-0.18,5.53-3.18,7.24c-3.07,1.75-6.31,3.2-9.24,5.19
		c-0.69,0.47-1.41,0.88-2.15,1.24c-2.34,1.12-4.41,2.7-6.57,4.13c-2.88,1.9-5.88,2.76-9.24,1.37c-2.58-3.7-2.1-6.66,1.65-9.22"/>
	<path class="st6" d="M397.34,115.52c2.41,0.49,4.58,1.23,5.54,3.72c0.99,2.57-0.24,4.51-2.06,6.2c-3.86,1.3-7.93,0.28-11.86,1.08
		c-4.58,0.94-8.97,2.17-12.69,5.16c-2,1.61-2,3.32-0.31,5.09c1.31,1.38,2.71,2.68,4.05,4.03c1.46,1.47,2.43,3.16,2.23,5.33
		c-2,4.01-3.86,4.72-8.58,3.3c-2.05-1.88-4.11-3.77-6.16-5.65c-2.07-1.9-3.44-4.47-3.79-7.26c-0.56-4.6,0.88-8.6,4.01-12.1
		c6.41-5.41,13.88-8.15,22.17-8.88"/>
</g>
</svg>
