<?xml version="1.0" encoding="utf-8"?>
<!-- Generator: Adobe Illustrator 26.5.0, SVG Export Plug-In . SVG Version: 6.00 Build 0)  -->
<svg version="1.1" id="图层_1" xmlns="http://www.w3.org/2000/svg" xmlns:xlink="http://www.w3.org/1999/xlink" x="0px" y="0px"
	 viewBox="0 0 612 411" style="enable-background:new 0 0 612 411;" xml:space="preserve">
<style type="text/css">
	.st0{fill:#4A6A90;}
	.st1{fill:#FEFEFE;}
	.st2{fill:#A4BDD3;}
	.st3{fill:#8EA9C2;}
	.st4{fill:#4A6A91;}
	.st5{fill:#A4BDD3;stroke:#4A6A90;stroke-width:20;stroke-linecap:round;stroke-linejoin:round;stroke-miterlimit:10;}
	.st6{fill:none;stroke:#4A6A90;stroke-width:20;stroke-linecap:round;stroke-linejoin:round;stroke-miterlimit:10;}
</style>
<g id="图层_1_00000067929064725862218000000001182129060951568061_">
	<path class="st0" d="M287.7,400.6c-86.5,0-173-0.3-259.5,0.2C10.9,401,2.9,386.5,9.7,372.6c6.6-13.6,13.4-27.1,22.7-39.2
		c3.6-4.7,4.7-9.3,4.5-15.1c-1.4-66.5,18.7-125.5,63.7-175c22-24.2,48.5-41.6,81.9-46.1c22.8-3,44.1,1.4,63.2,14.6
		c4,2.8,7.7,3.6,12.6,2.9c68.3-9.2,127.4,11.9,178.8,56.2c44.2,38.1,73.5,86.4,92.8,141c1.8,5.1,4.2,9.6,7.4,13.9
		c13.1,17,22,36.1,27.6,56.8c2.6,9.6-2.6,17-12.5,18c-2.1,0.2-4.2,0.1-6.2,0.1C460,400.6,373.8,400.6,287.7,400.6z"/>
	<path class="st1" d="M474.4,282.6c-44.8-8.8-78.5,9.4-105.3,43.7c-11.6,14.9-19.7,31.8-25.1,49.9c-1.2,4.1-3,5.2-7.1,5.1
		c-20.8-0.2-41.6-0.2-62.5,0c-4.1,0-5.9-1.4-7.4-5.1c-13.2-31.4-31.9-58.7-59.8-79.1c-19.6-14.4-41.5-22.2-65.8-23.7
		c-1.6-2.4,0.1-4.4,1.1-6.2c8.1-14.2,17.8-27.2,28.5-39.4c1.7-2,3.4-4.9,7-3.2c1.4,2,1,4.3,1.1,6.5c0.2,6.4,2.6,9.9,6.9,10.7
		c4,0.7,7.3-1.7,10-7.2c1.1-8.5,0.2-17,0.5-25.5c0.1-3.3,0.2-6.5,3.4-8.5c9.2-6,18.2-12.4,28-17.6c2.6-1.4,5.4-2.6,8.1-3.9
		c17.9-8.5,36.7-13.3,56.5-15c41-3.5,77.4,8.7,111,31c1.1,0.7,2.1,1.6,3.3,2.1c22,15,39.7,34.2,55,55.9c5.5,7.9,11.1,15.8,15.3,24.5
		C479.5,282,478.9,282.8,474.4,282.6z"/>
	<path class="st2" d="M195.4,204.4c-0.2-5.2-2.6-7.9-6.7-8.4c-5-0.6-8.5,2.4-9,7.8c-0.4,4.7-0.1,9.4-0.2,14.1
		c-0.1,2.4,0.3,4.9-1.7,6.9c-2.5-0.1-3.7,1.9-5,3.4c-11.3,12.8-21.3,26.4-29.8,41.2c-0.7,1.3-1.1,2.8-1.6,4.2
		c-22.8-0.4-44.1,5.4-63.4,17c-1.2-0.9-1.1-1.6-0.7-2.4c23.5-51.3,56.6-94.6,104.9-124.9c28.6-17.9,59.7-28.6,93.7-30.8
		c50.7-3.2,95.3,12.8,135.3,42.7c39.5,29.5,67.3,68.4,87.8,112.8c0.5,1.1,0.8,2.4,1.7,5c-9-5.3-17.7-7.9-26.4-10.4
		c3.8,0.1,3.3-1.7,2-4.1c-6.3-11.6-13.7-22.6-21.7-33.1c-13.5-17.8-29.4-33.3-47.3-46.7c-23.3-16.8-48.9-28.1-77.4-32.6
		c-32.5-5.1-63.4-0.1-93.1,13.5c-12.7,5.4-24.2,12.8-35.1,21.3c-2.9,1.8-4.8,4.8-4.7,8.1"/>
	<path class="st2" d="M138.1,381.3c-34.8,0-69.7-0.1-104.5,0.1c-4.7,0-6-0.6-3.6-5.4c11.7-24.4,26.8-46,48.9-62.2
		c37.4-27.5,82-27.4,118.8,0.7c21.4,16.3,36.6,37.4,48,61.6c1.9,4,1.5,5.5-3.5,5.4C207.4,381.2,172.7,381.3,138.1,381.3z"/>
	<path class="st2" d="M452.8,381.3c-28,0-56-0.1-84.1,0.1c-4.8,0-5.8-1-4.1-5.6c9.4-25.2,23-47.6,45.9-62.5
		c26.2-17,54.1-19.4,83.3-1.4c24.8,15.3,39.1,38.8,48.8,65.6c1.8,4.9-1.7,3.8-4.1,3.8C510,381.3,481.4,381.3,452.8,381.3z"/>
	<path class="st2" d="M59.6,272.3c2-17.4,7.5-33.9,14-50c11.7-28.9,28.1-54.8,51.5-75.8c20.6-18.4,43.9-30.8,72.4-30.6
		c8.7,0.1,17.2,2.1,26.1,6.2c-7.3,2.9-13.9,5.4-20.4,8.1c-23.7,10-44.9,24-64.3,40.9c-32.6,28.3-57.1,62.7-75.9,101.4
		c-0.6,1.2-1.3,2.2-2,3.4C58,275.6,59.3,273.8,59.6,272.3z"/>
	<path class="st3" d="M59.6,272.3c0.2,1.3-0.1,2.8,1.3,3.6c-0.6,2.1-0.9,4.3-3.6,6.9C59,278.6,57.6,275.2,59.6,272.3z"/>
	<path class="st4" d="M350.5,253.2c-5.4-0.1-10.5-1.3-15.5-3.3c-3.8-1.5-7-1.3-10.8,0.6c-11.9,5.7-24.2,7-37,2.7
		c-6.3-2.1-11.6-5.6-15.6-10.9c-3.1-4.1-2.6-9.5,0.9-12.9c3.5-3.3,9.4-3.9,12.9-0.4c9.3,9.2,19.7,8.9,30.3,3.6
		c8.9-4.5,17.5-4.4,26.3-0.9c5.6,2.2,10.7,2.4,16.4-0.1c6.5-2.9,12.2-0.7,14.3,4.7c2.2,5.6-0.4,10.7-7,13.5
		C361,251.8,356,253.4,350.5,253.2z"/>
	<path class="st4" d="M177.8,224.7c0-6.8,0-13.5,0.1-20.3c0.1-7,3.8-10.7,10.3-10.5c6,0.2,8.9,4,8.9,11.1c-0.1,9.4,0,18.8,0.1,28.2
		c0,2.2-0.6,4.4-1.9,6.2c-2.5,3.5-5.6,4.8-9.6,3.8c-5.6-1.4-7.9-5.2-7.8-10.7C177.9,230,177.8,227.4,177.8,224.7z"/>
</g>
<g id="图层_3">
	<polygon class="st5" points="585.5,49.6 567,120 456,120 441.5,49.6 	"/>
	<polyline class="st6" points="456,120 435.9,22.2 401.4,22.2 	"/>
	<circle class="st0" cx="464" cy="153" r="14.4"/>
	<circle class="st0" cx="559.5" cy="153.2" r="14.4"/>
</g>
</svg>
