<?xml version="1.0" encoding="utf-8"?>
<!-- Generator: Adobe Illustrator 26.5.0, SVG Export Plug-In . SVG Version: 6.00 Build 0)  -->
<svg version="1.1" id="图层_1" xmlns="http://www.w3.org/2000/svg" xmlns:xlink="http://www.w3.org/1999/xlink" x="0px" y="0px"
	 viewBox="0 0 612 411" style="enable-background:new 0 0 612 411;" xml:space="preserve">
<style type="text/css">
	.st0{fill:#4A6A90;}
	.st1{fill:#FEFEFE;}
	.st2{fill:#A4BDD3;}
	.st3{fill:#8EA9C2;}
	.st4{fill:#4A6A91;}
</style>
<path class="st0" d="M287.68,400.65c-86.52,0-173.03-0.3-259.55,0.25C10.9,401,2.89,386.54,9.66,372.61
	c6.63-13.65,13.43-27.15,22.69-39.18c3.61-4.7,4.66-9.31,4.54-15.09c-1.42-66.53,18.66-125.5,63.67-175.04
	c22-24.21,48.48-41.64,81.89-46.05c22.82-3.02,44.11,1.41,63.2,14.56c4.04,2.78,7.71,3.57,12.57,2.91
	c68.34-9.17,127.41,11.9,178.8,56.16c44.24,38.11,73.5,86.38,92.84,140.99c1.79,5.06,4.15,9.62,7.44,13.87
	c13.14,16.98,21.97,36.11,27.57,56.75c2.6,9.6-2.56,16.97-12.52,18.05c-2.06,0.22-4.16,0.11-6.24,0.11
	C459.96,400.65,373.82,400.65,287.68,400.65z"/>
<path class="st1" d="M474.39,282.62c-44.82-8.81-78.47,9.44-105.27,43.72c-11.65,14.9-19.74,31.77-25.12,49.85
	c-1.21,4.08-3.04,5.19-7.1,5.15c-20.82-0.19-41.64-0.21-62.46,0.01c-4.12,0.04-5.88-1.43-7.42-5.09
	c-13.24-31.37-31.91-58.69-59.77-79.08c-19.61-14.35-41.54-22.21-65.78-23.67c-1.63-2.44,0.09-4.38,1.15-6.23
	c8.08-14.16,17.8-27.16,28.53-39.41c1.72-1.97,3.44-4.86,7.02-3.25c1.42,1.99,1.03,4.29,1.12,6.5c0.25,6.35,2.55,9.95,6.92,10.73
	c3.99,0.71,7.31-1.68,10.02-7.24c1.12-8.48,0.24-16.98,0.48-25.46c0.09-3.29,0.2-6.48,3.37-8.5c9.24-6,18.23-12.42,28.01-17.6
	c2.65-1.4,5.36-2.64,8.05-3.95c17.92-8.5,36.74-13.32,56.53-15.02c40.97-3.53,77.38,8.67,111.03,31.01c1.1,0.73,2.13,1.58,3.33,2.14
	c21.99,15.01,39.73,34.23,54.97,55.86c5.55,7.88,11.1,15.8,15.33,24.5C479.46,281.98,478.89,282.75,474.39,282.62z"/>
<path class="st2" d="M195.36,204.37c-0.23-5.2-2.61-7.92-6.68-8.39c-4.99-0.57-8.52,2.35-9.01,7.78c-0.43,4.68-0.05,9.39-0.19,14.09
	c-0.07,2.39,0.34,4.95-1.67,6.89c-2.46-0.08-3.66,1.85-4.99,3.35c-11.27,12.77-21.33,26.42-29.78,41.23
	c-0.73,1.28-1.05,2.8-1.57,4.2c-22.83-0.36-44.05,5.43-63.38,17.04c-1.2-0.93-1.07-1.62-0.74-2.35
	c23.45-51.28,56.62-94.57,104.89-124.89c28.56-17.94,59.67-28.65,93.73-30.77c50.73-3.17,95.26,12.84,135.28,42.68
	c39.55,29.49,67.28,68.44,87.83,112.82c0.53,1.15,0.83,2.41,1.7,5c-8.95-5.28-17.66-7.89-26.4-10.42c3.83,0.13,3.33-1.69,1.99-4.14
	c-6.33-11.63-13.72-22.57-21.7-33.1c-13.52-17.84-29.41-33.32-47.34-46.72c-23.3-16.81-48.85-28.06-77.43-32.55
	c-32.54-5.12-63.44-0.12-93.15,13.54c-12.67,5.45-24.2,12.81-35.05,21.27c-2.88,1.79-4.81,4.77-4.72,8.08"/>
<path class="st2" d="M138.08,381.3c-34.84,0-69.68-0.06-104.52,0.08c-4.69,0.02-5.99-0.57-3.65-5.43
	c11.71-24.38,26.82-45.98,48.88-62.22c37.36-27.5,81.99-27.41,118.76,0.66c21.35,16.29,36.64,37.43,47.97,61.6
	c1.88,4,1.54,5.45-3.48,5.42C207.39,381.21,172.74,381.3,138.08,381.3z"/>
<path class="st2" d="M452.8,381.3c-28.02,0-56.05-0.1-84.07,0.09c-4.83,0.03-5.76-1.03-4.06-5.62c9.38-25.19,22.99-47.6,45.86-62.47
	c26.21-17.05,54.13-19.4,83.34-1.39c24.84,15.31,39.15,38.76,48.78,65.56c1.77,4.92-1.72,3.79-4.09,3.8
	C509.99,381.31,481.39,381.3,452.8,381.3z"/>
<path class="st2" d="M59.61,272.29c2.04-17.4,7.49-33.89,14-49.99c11.69-28.91,28.05-54.84,51.47-75.79
	c20.56-18.39,43.9-30.81,72.37-30.63c8.73,0.05,17.18,2.05,26.11,6.23c-7.34,2.93-13.92,5.42-20.39,8.15
	c-23.74,10.01-44.94,24.04-64.33,40.88c-32.61,28.32-57.11,62.72-75.88,101.38c-0.57,1.18-1.35,2.25-2.03,3.37
	C58.04,275.59,59.29,273.77,59.61,272.29z"/>
<path class="st3" d="M59.61,272.29c0.19,1.29-0.11,2.76,1.31,3.6c-0.59,2.09-0.9,4.3-3.64,6.86
	C58.97,278.61,57.6,275.2,59.61,272.29z"/>
<path class="st4" d="M350.53,253.2c-5.37-0.09-10.51-1.32-15.45-3.32c-3.75-1.52-6.99-1.26-10.78,0.55
	c-11.87,5.67-24.25,6.97-36.95,2.69c-6.27-2.11-11.58-5.6-15.59-10.86c-3.09-4.06-2.59-9.52,0.91-12.89
	c3.45-3.32,9.39-3.95,12.92-0.45c9.29,9.19,19.71,8.92,30.27,3.6c8.86-4.47,17.45-4.43,26.27-0.94c5.58,2.21,10.73,2.44,16.38-0.11
	c6.46-2.92,12.19-0.69,14.32,4.71c2.19,5.55-0.43,10.68-6.96,13.48C360.99,251.77,355.97,253.43,350.53,253.2z"/>
<path class="st4" d="M177.81,224.74c0.02-6.76-0.02-13.52,0.07-20.28c0.09-7.02,3.75-10.7,10.31-10.52c6.01,0.16,8.95,4,8.9,11.13
	c-0.07,9.39,0.02,18.78,0.07,28.17c0.01,2.22-0.61,4.42-1.89,6.23c-2.5,3.54-5.64,4.8-9.62,3.83c-5.59-1.36-7.88-5.18-7.77-10.73
	C177.94,229.97,177.84,227.36,177.81,224.74z"/>
</svg>
