<?xml version="1.0" encoding="utf-8"?>
<!-- Generator: Adobe Illustrator 26.5.0, SVG Export Plug-In . SVG Version: 6.00 Build 0)  -->
<svg version="1.1" id="图层_1" xmlns="http://www.w3.org/2000/svg" xmlns:xlink="http://www.w3.org/1999/xlink" x="0px" y="0px"
	 viewBox="0 0 870 585" style="enable-background:new 0 0 870 585;" xml:space="preserve">
<style type="text/css">
	.st0{fill:#FEFEFE;}
	.st1{fill:#4A6A90;}
	.st2{fill:#A4BDD3;}
	.st3{fill:#A3BCD2;}
	.st4{fill:#8EA9C2;}
	.st5{fill:#4A6A91;}
	.st6{fill:#4B6A91;}
	.st7{fill:#E8BEC2;}
</style>
<path class="st0" d="M435.31,584.83c-142.78,0-285.56-0.05-428.34,0.17c-5.95,0.01-6.98-1.36-6.98-7.07
	C0.18,387.67,0.17,197.42,0.02,7.16C0.01,1.67,0.74,0,6.9,0c285.56,0.21,571.12,0.2,856.67,0.02c5.62,0,6.58,1.22,6.57,6.66
	c-0.18,190.52-0.2,381.05,0.06,571.57c0.01,6.61-2.29,6.67-7.37,6.67C720.33,584.81,577.82,584.83,435.31,584.83z"/>
<path class="st1" d="M408.25,570.32c-122.84,0-245.69-0.45-368.52,0.38c-24.7,0.17-36.56-20.1-26.53-40.65
	c9.35-19.15,18.88-38.16,31.89-55.06c5.31-6.9,6.88-13.72,6.67-22.21c-2.15-88.37,23.55-167.69,79.62-236.35
	c29.35-35.94,65.06-63.64,111.28-74.86c38.85-9.43,75.41-4.04,108.55,19.26c4.04,2.84,7.78,3.59,12.71,2.89
	c98.07-13.83,183.03,15.8,256.93,79.36c63.21,54.36,105.01,123.27,132.53,201.29c2.45,6.95,5.71,13.19,10.23,19.02
	c18.72,24.15,31.37,51.32,39.35,80.71c3.92,14.42-3.88,25.13-18.91,26.15c-2.68,0.18-5.39,0.06-8.08,0.06
	C653.4,570.32,530.82,570.32,408.25,570.32z"/>
<path class="st1" d="M735.27,214.84c-9.04-1.73-19.85,1.87-30.6,6.68c-12.03,5.38-24.32,10.22-36.59,15.06
	c-9.44,3.72-16.14,2.16-20.33-7.01c-11.91-26.07-30.13-44.99-55.62-58.72c-18.07-9.73-31.66-25.73-41.46-44.25
	c-17-32.13-8.88-66.43,20.6-87.9c23.56-17.16,50.71-23.69,78.96-25.02c56.98-2.69,110.19,10.1,157.73,42.65
	c21.49,14.71,39.46,32.73,47.64,58.31c8.62,26.96,0.59,53.07-21.15,71.18c-20.2,16.83-44.24,23.9-69.66,27.45
	C755.98,214.5,747.12,215.19,735.27,214.84z"/>
<path class="st0" d="M674.35,402.36c-63.43-12.5-111.04,13.32-149.4,61.55c-0.84,1.05-1.45,2.32-2.4,3.24
	c-1.77,1.72-3.03,5.77-5.94,3.91c-2.76-1.77-2.75-5.36-1.1-8.75c5.63-11.61,11.08-23.32,16.51-35.03
	c6.59-14.21,1.12-23.88-14.91-24.46c-19.91-0.72-39.86-0.32-59.79-0.23c-8.33,0.04-16.66-0.56-24.97,1.03
	c-11.97,2.29-16.59,10.76-11.38,21.96c5.56,11.95,11.3,23.81,17.03,35.68c1.56,3.23,2.25,6.03,0.7,9.85
	c-8.71,21.42-17.14,42.96-25.28,64.6c-2.03,5.4-5.07,6.49-10.56,7.31c-15.48,2.3-22.48-3.94-28.8-18.26
	c-21-47.52-52.26-86.98-98.16-113.42c-23.33-13.44-48.58-20.12-75.28-21.93c-2.32-3.47,0.13-6.23,1.63-8.87
	c11.5-20.15,25.33-38.65,40.59-56.08c2.45-2.8,4.89-6.92,9.98-4.62c2.01,2.83,1.47,6.1,1.59,9.25c0.35,9.04,3.63,14.15,9.85,15.27
	c5.67,1.02,10.41-2.39,14.25-10.3c1.6-12.07,0.34-24.17,0.69-36.23c0.13-4.69,0.29-9.22,4.8-12.1c13.18-8.55,25.99-17.71,39.94-25.1
	c3.78-2,7.66-3.74,11.49-5.63c25.77-12.21,52.86-18.85,81.32-21.45c44.23-4.03,85.24,6.49,124.71,25.07
	c7.27,3.42,14.14,7.73,20.98,12.01c2.58,1.61,5.95,3.81,5.55,7.37c-4.71,6.66-6.64,13.73-6.33,21.7c0.37,9.63,0.11,19.29,0.09,28.94
	c-0.02,6.58,1.28,12.63,8.32,14.95c7.24,2.39,11.58-2.07,15.04-7.67c3-8.38,0.91-17.04,1.43-25.55c0.29-4.82-0.16-9.68,0.21-14.51
	c0.42-5.46-0.04-8.11,4.25-4.86c9,6.83,20.73,15.74,28.48,23.89c21.57,22.67,40.45,47.44,56.2,74.53c1.49,2.56,3.06,5.11,3.86,7.97
	C680.86,402.08,679.5,404.26,674.35,402.36z"/>
<path class="st2" d="M276,296c-0.33-7.4-2.41-16.27-8.2-16.94c-7.1-0.82-12.12,3.34-12.83,11.08c-0.61,6.66-0.08,13.36-0.27,20.04
	c-0.1,3.41,3.16,6.05,0.3,8.82c-3.5-0.11-7.88,3.62-9.77,5.76c-16.04,18.17-30.36,37.6-42.37,58.67c-1.04,1.83-1.5,3.98-2.23,5.98
	c-32.51-0.59-62.65,7.86-90.27,24.18c-1.63-1.26-1.44-2.25-0.97-3.28c33.37-72.98,80.56-134.58,149.26-177.73
	c40.64-25.53,84.92-40.77,133.38-43.79c72.18-4.5,135.56,18.27,192.5,60.73c56.28,41.97,95.73,97.39,124.98,160.55
	c0.76,1.64,1.18,3.43,2.42,7.11c-12.73-7.51-25.13-11.23-37.57-14.83c5.45,0.19,4.72-2.4,2.83-5.9
	c-8.45-15.63-18.26-30.39-28.95-44.52C631.35,329.62,609.05,310.51,586,293c-1.93,6.96-0.43,11.56-1,18c-0.73,8.18,1.25,16.97-2,25
	c-2.84-2.8,1.76-6.34,1.72-9.77c-0.12-9.95,0-19.9-0.06-29.85c-0.07-13.7-2.49-15.23-15.66-18.38c-16.49-13.7-34.91-22.4-54.67-29.8
	c-27.07-10.14-55.25-15.35-84.21-14.55c-32.72,0.9-64.2,7.77-93.81,22.13c-18.06,7.77-34.49,18.25-49.96,30.31"/>
<path class="st2" d="M194.97,542.78c-49.31,0-98.62-0.09-147.93,0.11c-6.72,0.03-8.47-0.87-5.17-7.75
	c16.66-34.69,38.16-65.43,69.56-88.54c53.14-39.13,116.68-38.99,169,0.95c30.37,23.19,52.13,53.28,68.26,87.67
	c2.69,5.74,2.13,7.74-4.98,7.7C294.13,542.66,244.55,542.78,194.97,542.78z"/>
<path class="st2" d="M644.38,542.78c-40.14,0-80.29-0.15-120.43,0.14c-7.07,0.05-8.04-1.72-5.67-8.06
	c13.28-35.55,32.44-67.18,64.62-88.41c36.76-24.25,76.72-28.31,118.57-2.81c35.71,21.76,56.29,55.33,70.05,93.76
	c2.55,7.12-2.64,5.32-5.89,5.33C725.2,542.81,684.79,542.78,644.38,542.78z"/>
<path class="st2" d="M84.12,387.66c2.91-24.76,10.65-48.22,19.92-71.14c16.63-41.14,39.92-78.04,73.24-107.85
	c29.25-26.17,62.47-43.84,102.98-43.58c12.42,0.08,24.47,2.83,37.04,8.91c-10.33,4.12-19.69,7.66-28.9,11.55
	c-33.78,14.25-63.94,34.21-91.54,58.17c-46.41,40.31-81.26,89.26-107.98,144.28c-0.81,1.67-1.92,3.2-2.88,4.8
	C81.9,392.34,83.68,389.76,84.12,387.66z"/>
<path class="st2" d="M463.96,542.78c-5.9,0-11.81-0.08-17.71,0.03c-4.21,0.07-5.15-1.47-3.57-5.4c6.6-16.39,13.09-32.83,19.47-49.31
	c1.07-2.77,2.27-4.79,5.54-4.77c6.44,0.03,12.88,0.01,19.32,0.04c2.01,0.01,3.83,0.77,4.78,2.51c4.89,9.03,9.74,16.46,4.61,28.88
	C493,523,492,529,488.53,536.59c-1.33,4.79-3.6,6.59-8.47,6.28C474.71,542.52,469.33,542.78,463.96,542.78z"/>
<path class="st3" d="M499.47,430c-3.7,8.11-6.86,14.85-9.86,21.66c-1.38,3.15-3.67,3.34-6.96,4.07c-5.66,1.26-12.53,2.62-16.11-1.73
	c-4.81-5.83-7.63-13.44-10.59-20.58c-1.53-3.7,2.25-3.18,4.44-3.4c1.33-0.13,2.68-0.03,4.02-0.03C475.65,430,486.89,430,499.47,430z
	"/>
<path class="st4" d="M84.12,387.66c0.27,1.84-0.15,3.93,1.87,5.13c-0.83,2.97-1.27,6.12-5.18,9.77
	C83.21,396.65,81.26,391.79,84.12,387.66z"/>
<path class="st0" d="M728.81,187.03c-16.81-0.03-26.49,5.33-40.65,11.04c-6.97,2.81-14.79,8.79-20.76,7.33
	c-6.16-1.51-7.78-12.07-12-18.19c-8.4-12.21-14.89-21.65-28.2-27.22c-12.94-5.41-24.17-14.06-34.31-23.89
	c-2.7-2.62-5.35-5.33-7.8-8.18c-25.17-29.26-19.14-57.95,15.79-74.27c26.68-12.47,54.98-14.41,83.79-11.67
	c41.55,3.96,80.05,16.5,113.68,41.87c11.26,8.49,21.05,18.49,27.38,31.36c10.16,20.67,5.7,38.86-13.25,52.28
	c-15.54,11.01-33.43,15.93-52.06,18.23C751.07,186.89,741.67,187.9,728.81,187.03z"/>
<path class="st1" d="M453.48,374.03c-18.65-0.13-37.14-1.52-54.99-7.33c-27.85-9.06-33-29.08-13.25-50.84
	c31.81-35.04,94.95-40.36,132.05-11.08c6.83,5.39,12.4,11.93,16.72,19.48c7.99,13.97,5.07,26.94-8.54,35.49
	c-15.03,9.43-32.3,11.33-49.42,13.19C468.57,373.75,461,373.69,453.48,374.03z"/>
<path class="st5" d="M252.33,319.99c0.03-9.62-0.02-19.24,0.1-28.86c0.13-9.99,5.34-15.22,14.67-14.97
	c8.55,0.23,12.74,5.69,12.66,15.84c-0.11,14.71,0.06,29.41,0.11,44.12c-3.9,8.66-9.18,12.05-16.39,10.29
	c-7.95-1.94-11.21-7.37-11.05-15.27C252.5,327.43,252.37,323.71,252.33,319.99z"/>
<path class="st5" d="M569.17,276.18c14.69-0.03,17.73,3.2,17.67,18.04c-0.06,13.96,0.14,27.92,0.23,41.89
	c-3.84,8.46-8.91,11.79-15.9,10.45c-7.55-1.45-11.45-6.76-11.51-15.99c-0.08-12.92,0.12-25.84-0.08-38.75
	c-0.09-5.84,1.68-10.53,6.36-14.06C566.95,277.09,568,276,569.17,276.18z"/>
<path class="st6" d="M639.84,79.32c10.79,0,18.82,8.16,18.66,18.96c-0.15,10.53-8.01,18.32-18.45,18.28
	c-10.52-0.04-18.67-7.86-18.84-18.07C621.03,87.83,629.31,79.31,639.84,79.32z"/>
<path class="st6" d="M701.23,92.24c10.79-0.02,18.84,8.13,18.7,18.92c-0.14,10.54-7.98,18.34-18.41,18.32
	c-10.52-0.02-18.69-7.82-18.88-18.02C682.45,100.79,690.71,92.25,701.23,92.24z"/>
<path class="st6" d="M782.99,126.16c-0.33,10.45-8.39,18.08-18.87,17.86c-10.76-0.23-18.93-8.8-18.4-19.29
	c0.53-10.36,8.8-18.16,19.04-17.94C775.55,107.01,783.33,115.28,782.99,126.16z"/>
<path class="st7" d="M453.62,345.96c-14.32,0.32-28.5-0.86-42.35-4.69c-7.45-2.06-8.07-3.99-2.28-9.31
	c16.76-15.41,37.07-20.05,59.12-17.7c12.79,1.36,24.57,5.95,34.41,14.55c2.37,2.07,5.67,4.46,4.89,7.82
	c-0.72,3.11-4.77,3.14-7.49,3.89C484.79,344.74,469.31,346.32,453.62,345.96z"/>
</svg>
