<?xml version="1.0" encoding="utf-8"?>
<!-- Generator: Adobe Illustrator 26.5.0, SVG Export Plug-In . SVG Version: 6.00 Build 0)  -->
<svg version="1.1" id="图层_1" xmlns="http://www.w3.org/2000/svg" xmlns:xlink="http://www.w3.org/1999/xlink" x="0px" y="0px"
	 viewBox="0 0 830.79 558.5" style="enable-background:new 0 0 830.79 558.5;" xml:space="preserve">
<style type="text/css">
	.st0{fill:#4A6A90;}
	.st1{fill:#FEFEFE;}
	.st2{fill:#A4BDD3;}
	.st3{fill:#4A6A91;}
	.st4{fill:#E8BEC2;}
	.st5{fill:#ED7A7A;}
</style>
<path class="st0" d="M389.57,544.51c-117.28,0-234.56-0.42-351.83,0.35c-23.9,0.16-34.28-19.83-25.33-38.29
	c9.22-19.01,18.8-37.73,31.69-54.51c4.2-5.47,5.59-10.87,5.39-17.68c-2.5-84.94,21.85-161.23,75.62-227.34
	c28.13-34.59,62.39-61.24,106.79-71.97c37.09-8.96,71.97-3.69,103.65,18.5c2.96,2.08,5.7,3.65,9.85,3.03
	c94.77-14.03,176.77,14.47,248.1,76.11c60.02,51.87,99.71,117.49,125.86,191.75c2.25,6.38,5.18,12.16,9.36,17.52
	c18.1,23.22,30.29,49.39,37.97,77.71c3.56,13.11-3.3,23.11-16.8,24.66c-2.8,0.32-5.65,0.16-8.48,0.16
	C624.13,544.51,506.85,544.51,389.57,544.51z"/>
<path class="st1" d="M643.84,384.14c-60.89-11.97-106.6,12.82-143.01,59.41c-15.82,20.24-26.82,43.16-34.12,67.74
	c-1.65,5.54-4.13,7.06-9.64,7c-28.28-0.26-56.57-0.29-84.85,0.02c-5.6,0.06-7.98-1.95-10.08-6.91
	c-17.99-42.62-43.36-79.75-81.21-107.45c-26.65-19.5-56.43-30.17-89.37-32.17c-2.29-3.66,0.37-6.45,1.96-9.14
	c14.33-24.2,30.97-46.62,51.39-66.1c2.41-2.3,4.7-4.84,8.41-4.94c7.78,0.91,14.7,4.49,21.86,7.25c5.77,2.22,6.02,4.62,1.01,8.67
	c-8.79,7.1-17.62,14.15-26.48,21.15c-2.02,1.59-4.04,3.19-5.69,5.17c-4.2,5.01-4.48,10.24-0.81,14.67c3.86,4.67,9.7,5.59,15.18,1.89
	c6.38-4.31,12.36-9.19,18.38-14c10.83-8.66,21.67-17.31,32.48-25.98c3.37-2.7,7.02-5.39,8.13-9.95c1.34-5.49-1.48-10.35-7.95-13.3
	c-8.18-3.73-16.78-6.44-25.14-9.74c-2.6-1.03-8.07-2.84-9.57-5.63c-0.91-3.86,4.5-4.29,7.01-6c12.24-8.36,24.83-16.14,38.38-22.28
	c24.35-11.54,49.92-18.11,76.82-20.44c55.97-4.85,105.63,11.98,151.54,42.55c1.28,0.85,2.47,1.84,3.87,2.49
	c29.87,20.4,53.98,46.51,74.68,75.9c7.54,10.71,15.08,21.47,20.83,33.3C650.73,383.27,649.94,384.32,643.84,384.14z"/>
<path class="st2" d="M252.09,292.46c-7.7,6.5-12.13,11.45-17.91,17.75c-15.47,16.82-28.72,35.37-40.12,55.2
	c-1.13,1.96-1.68,4.25-2.5,6.38c-15.21-0.21-30.18,1.53-44.89,5.48c-14.69,3.95-28.38,10.29-41.37,17.55
	c-1.47-1.14-1.29-2.08-0.84-3.06c31.85-69.68,76.91-128.5,142.5-169.7c38.8-24.37,81.07-38.93,127.34-41.82
	c68.91-4.3,129.42,17.44,183.79,57.99c53.73,40.07,91.4,92.99,119.32,153.3c0.72,1.57,1.13,3.28,2.31,6.79
	c-12.16-7.18-23.99-10.73-35.87-14.16c5.2,0.18,4.52-2.3,2.7-5.63c-8.6-15.8-18.64-30.67-29.48-44.98
	c-18.37-24.25-39.95-45.28-64.32-63.48c-31.78-22.93-66.64-38.23-105.64-44.29c-44.11-6.85-85.94-0.01-126.18,18.5
	c-16.67,7.31-32.07,16.7-46.24,28.12c-5.12,0.71-9.44-1.88-13.96-3.53c-5.06-1.85-10.02-4.04-15.38-4.78
	c-6.08-0.85-11.23,2.33-12.74,7.48c-1.72,5.9,0.68,10.94,6.63,13.8c2.78,1.33,5.82,2.01,8.64,3.2
	C250.09,289.48,251.81,289.04,252.09,292.46z"/>
<path class="st2" d="M186.16,518.22c-47.08,0-94.15-0.09-141.23,0.1c-6.42,0.03-8.09-0.83-4.94-7.4
	c15.9-33.12,36.44-62.47,66.41-84.54c50.74-37.37,111.4-37.23,161.35,0.91c29,22.14,49.77,50.87,65.17,83.71
	c2.57,5.48,2.03,7.39-4.75,7.35C280.83,518.1,233.49,518.22,186.16,518.22z"/>
<path class="st2" d="M614.51,518.22c-38.07,0-76.14-0.13-114.21,0.13c-6.55,0.04-7.84-1.39-5.51-7.63
	c12.75-34.23,31.24-64.68,62.3-84.88c35.6-23.16,73.54-26.36,113.22-1.89c33.74,20.81,53.19,52.67,66.27,89.08
	c2.4,6.68-2.33,5.16-5.55,5.16C692.19,518.24,653.35,518.22,614.51,518.22z"/>
<path class="st2" d="M80.33,370.11c2.77-23.64,10.17-46.05,19.02-67.93c15.88-39.29,38.11-74.52,69.92-102.98
	c27.93-24.99,59.64-41.86,98.32-41.62c11.86,0.07,23.34,2.78,35.47,8.46c-9.98,3.97-18.91,7.36-27.7,11.07
	c-32.25,13.61-61.05,32.66-87.39,55.55c-44.31,38.49-77.58,85.23-103.09,137.76c-0.78,1.6-1.83,3.06-2.75,4.58
	C78.48,380.55,79.91,372.11,80.33,370.11z"/>
<path class="st0" d="M473.31,257.87c13.99-0.07,26.22,1.48,38.19,4.71c32.01,8.65,43.77,27.1,37.48,59.62
	c-5.94,30.76-25.64,50.29-53.58,61.95c-36.83,15.37-79.95,6.75-105.69-20.19c-12.65-13.24-18.46-29.42-20.5-47.16
	c-1.43-12.45,4.79-21.83,13.54-29.63c19.86-17.69,44.3-24.28,69.84-27.76C459.96,258.4,467.39,257.35,473.31,257.87z"/>
<path class="st3" d="M308.31,284.44c13.8,5.38,15.8,16.54,4.44,25.69c-17.01,13.71-34.18,27.24-51.36,40.74
	c-7.11,5.59-14.94,5.17-19.89-0.76c-5.18-6.2-3.9-14.16,3.5-20.12c11.15-9,22.41-17.85,34.62-27.55c-9.42-3.41-17.8-6.44-26.19-9.48
	c-4.74-1.78-9.52-3.49-14.23-5.37c-7.9-3.16-11.16-9.54-8.85-17.1c1.96-6.44,9.15-10.37,16.85-8.16c9.31,2.68,18.36,6.27,27.52,9.47
	"/>
<path class="st4" d="M437.91,361.99c-1.37-0.45-2.75-0.89-4.16-1.21c-18.14-4.08-34.92-22.79-37-40.85
	c-0.98-8.53,3.1-13.49,9.56-17.6c11.41-7.26,23.91-11.92,37.06-14.49c22.9-4.47,45.71-5.47,68.2,2.93
	c8.21,3.06,11.84,8.56,11.84,16.82c-0.01,20.89-9.68,36.07-27.79,46.12c-1.62-3.68,0.92-6.41,2.3-9.3
	c2.58-5.39,4.71-10.88,4.87-16.9c0.31-12.33-10.38-20.53-22.3-17.17c-4.22,1.19-8.22,2.95-12.29,4.57
	c-4.01,1.65-7.92,1.1-11.97-0.09c-5.97-1.75-12.15-2.19-18.04,0.17c-14.33,5.75-17.43,21.78-6.89,34.95
	c1.75,2.19,3.38,4.46,5.44,6.39C438.34,357.84,453.96,367.31,437.91,361.99z"/>
<path class="st5" d="M466.59,314.43c1.24-0.9,2.52-1.75,3.9-2.41c5.63-2.72,11.29-5.64,17.77-4.54
	c14.91,2.55,20.68,16.1,13.99,32.37c-1.94,4.73-4.4,9.25-6.62,13.87c-15.57,10.56-32.77,12.75-50.96,9.94
	c-8.98-6.23-16.52-13.73-19.93-24.4c-2.49-7.8-0.16-14.52,5.64-20.25c7.17-7.08,15.62-8.02,24.85-5.54
	C459.06,314.49,462.87,317.11,466.59,314.43z"/>
<path class="st5" d="M557.4,54.3c9.27-16.04,22.66-25.78,41.42-29.36c10.28-1.96,20.33-0.96,30.21,2.24
	c17.53,6.04,29.51,17.87,36.47,34.93c0.29,0.71,0.39,1.53,0.8,2.16c1.17,1.79,1.24,4.94,4.4,4.48c2.31-0.34,2.77-2.5,3.48-4.53
	c3.34-9.57,8.38-18.1,16.17-24.81c22.35-21.45,59.77-20.96,80.78,0.79c1.73,1.79,3.49,3.56,5.25,5.32c0.09,0.09,0.17,0.18,0.25,0.27
	c2.76,3.13,4.75,6.78,6.79,10.39c0.09,0.16,0.17,0.33,0.25,0.5c10.1,23.31,8.14,46.43-7.26,65.36
	c-2.16,2.66-22.03,22.31-24.46,24.71c-23.92,23.62-15.51,15.82-31.89,33.25c-14.96,15.92-29.42,32.3-44.21,48.37
	c-5.28,5.74-8.37,5.42-13.92-0.46c-29.12-30.84-58.32-61.6-87.37-92.49c-5.32-5.66-8.32-9.66-13.34-15.6
	c-0.22-0.26-2.19-2.71-2.38-3c-11.72-17.98-12.92-38.96-3.69-58.73"/>
</svg>
