<?xml version="1.0" encoding="utf-8"?>
<!-- Generator: Adobe Illustrator 26.5.0, SVG Export Plug-In . SVG Version: 6.00 Build 0)  -->
<svg version="1.1" id="图层_1" xmlns="http://www.w3.org/2000/svg" xmlns:xlink="http://www.w3.org/1999/xlink" x="0px" y="0px"
	 viewBox="0 0 1080 297.23" style="enable-background:new 0 0 1080 297.23;" xml:space="preserve">
<style type="text/css">
	.st0{fill:#496990;}
	.st1{fill:#48678B;}
	.st2{fill:#FEFEFE;}
	.st3{fill:#A1B9CE;}
	.st4{fill:#436288;}
	.st5{fill:#4B698D;}
	.st6{fill:#E4BBBF;}
	.st7{fill:#EDF0F3;}
	.st8{fill:#EFF2F5;}
	.st9{fill:#E4E8EE;}
</style>
<path class="st0" d="M171.95,169.91c-7.27,18.67-11.93,36.28-17.18,53.71c-2.75,9.13-5.95,18.11-10.41,26.55
	c-4.19,7.92-9.33,15.77-19.54,14.83c-10.23-0.94-17.21-7.21-20.85-17.17c-5.8-15.88-9.73-32.27-13.75-48.63
	c-11.49-46.71-25.3-92.89-32.7-140.56c-0.54-3.49-1.08-7.01-1.16-10.53c-0.25-11.01,3.47-15.75,14.22-18.63
	c10.77-2.89,17.51-0.23,22.74,8.95c5.66,9.95,6.3,21.28,8.84,32.08c8.39,35.72,16.76,71.45,25.17,107.17
	c0.37,1.57,1.08,3.06,2.05,5.72c5.21-16.66,10.05-32.34,15.03-47.97c3.14-9.85,6.12-19.79,11.19-28.87
	c8.66-15.53,23.18-16,32.65-0.88c8.74,13.95,12.82,29.93,18.64,45.14c3.29,8.58,5.91,17.43,11.1,27.03
	c4.73-20.34,8.95-39.27,13.55-58.1c5.68-23.24,11.61-46.41,17.59-69.57c1.08-4.18,2.61-8.33,4.55-12.17
	c3.9-7.73,11.78-11.02,20.68-9.15c11.1,2.33,15.46,6.46,16.06,16.42c0.81,13.53-3.41,26.36-6.48,39.28
	c-11.3,47.61-22.79,95.18-34.31,142.75c-2.11,8.73-4.86,17.31-9.44,25.12c-9.62,16.39-24.6,17.09-35.79,1.4
	c-7.17-10.05-10.88-21.9-15.13-33.33c-5.01-13.49-9.04-27.34-13.56-41.01C174.79,176.68,173.56,173.98,171.95,169.91z"/>
<path class="st0" d="M840.24,111.08c0-16.89-0.09-33.79,0.06-50.68c0.04-4.33,0.53-8.7,1.34-12.96
	c3.32-17.53,18.76-25.35,35.2-17.99c6.75,3.02,10.83,7.88,11.39,15.55c2.03,27.75,1.18,55.52,0.38,83.28
	c-0.49,16.91-0.35,33.82,2.92,50.44c4.93,25.05,17.84,36.01,39.61,34.71c19.18-1.15,34.7-17.69,36.43-39.75
	c3.16-40.44,5.58-80.91,3.86-121.51c-0.57-13.5,9.03-23.9,22.82-24.96c12.02-0.93,22.98,8.4,24.51,21.49
	c3.84,32.84,3.2,65.74,0.62,98.62c-1.58,20.09-3.39,40.16-11.17,59.11c-15.66,38.15-46.93,57.16-89.29,54.17
	c-33.92-2.39-64.44-29.67-73.88-65.78c-4.25-16.24-4.99-32.77-5.05-49.4c-0.04-11.45-0.01-22.89-0.01-34.34
	C840.07,111.08,840.16,111.08,840.24,111.08z"/>
<path class="st0" d="M699.44,174.39c0,11.97,0.23,23.82-0.06,35.65c-0.33,13.01,1.98,26.15-1.45,39.03
	c-2.77,10.39-8.6,14.6-20.39,15.08c-10.35,0.42-16.03-3.44-19.65-13.62c-1.83-5.16-2.75-10.59-2.68-16.03
	c0.66-52.57-1.32-105.1-1.43-157.66c-0.02-9.78,0.57-19.59,1.4-29.35c1.47-17.33,18.11-26.46,33.55-18.35
	c7.44,3.91,8.82,11.57,9.03,18.98c0.45,15.79,0.29,31.6,0.38,47.4c0.01,2.66,0,5.32,0,9.09c6.38-3.95,10.53-8.88,14.97-13.43
	c17.52-17.93,34.85-36.04,53.61-52.69c12.44-11.04,25.42-11.46,35.72-1.32c6.31,6.21,6.97,11.26,2.14,18.92
	c-7.65,12.13-18.93,21.01-28.63,31.28c-14.96,15.84-30.26,31.38-45.81,46.64c-4.25,4.17-3.75,6.3,0.17,10.12
	c24.02,23.37,47.07,47.68,69.01,73.02c4.81,5.55,9.69,10.98,12.63,17.93c3.06,7.22,1.8,13.55-3.73,18.56
	c-6.26,5.67-13.46,9.62-22.28,5.5c-6.51-3.04-11.78-7.74-16.69-12.93c-21.34-22.55-42.72-45.07-64.15-67.53
	C703.53,177.02,702.35,174.61,699.44,174.39z"/>
<path class="st1" d="M447.83,274.92c-39.04-0.62-77.88-2.91-115.61-14.21c-11-3.3-21.58-7.56-31.07-14.22
	c-9.35-6.56-13.01-15.92-10.36-26.45c11.75-46.68,29.54-90.66,61.53-127.56c22.68-26.17,49.82-45.56,84.84-51.59
	c22.34-3.85,44-0.97,64.77,8.01c4.44,1.92,8.39,2.44,13.28,1.28c30.95-7.39,57.5,4.17,74.49,32.12
	c14.58,23.98,19.87,50.73,20.56,78.13c0.43,17.16,3.72,33.27,8.73,49.44c5.28,17.07,1.63,26.42-13.64,35.93
	c-19.81,12.33-42.24,17.21-64.78,21.37c-11.24,2.08-22.61,3.54-33.97,4.76C487.08,274.03,467.46,274.62,447.83,274.92z"/>
<path class="st2" d="M583.3,239.33c-21.17,9.36-43.79,12.68-66.45,15.47c-56.26,6.92-112.34,6.24-167.99-5.57
	c-13.6-2.89-26.86-6.97-38.46-15.11c-2.16-3.09-2.42-6.44-1.44-9.99c9.96-35.8,22.44-70.59,44.62-100.88
	c15.36-20.98,33.2-39.56,57.91-50c28.31-11.97,55.23-8.25,81.2,6.82c5.65,3.28,10.88,7.21,16.03,11.23c3.31,2.59,6,5.55,6.26,10.03
	c0.22,2.94-0.11,5.91,0.36,8.85c1.3,8.28,3.95,9.71,12.02,6.49c5.29-1.62,7.32,2.58,9.6,5.72c12.54,17.19,22.13,36.01,29.97,55.72
	c6.32,15.88,11.82,32.06,15.78,48.7C583.7,230.85,585.83,235.05,583.3,239.33z"/>
<path class="st3" d="M515.88,103.06c-0.2-3.11-4.05-6.53-6.55-8.64c-18.15-15.32-38.61-25.91-62.65-26.26
	c-24.36-0.35-45.42,9.49-63.58,25.48c-28.95,25.48-47.11,57.96-60.09,93.65c-4.45,12.23-7.94,24.81-11.97,37.2
	c-1.04,3.2-1.28,6.37-0.65,9.63c-5.13-3.1-5.03-7.44-3.72-12.7c11.59-46.58,29.96-89.9,63.31-125.28
	c23.92-25.38,52.62-42.45,88.98-41.33C489,55.74,513.91,69.26,535.3,89.4c29.22,27.5,47.57,61.87,60.88,99.2
	c3.01,8.44,5.57,17.05,7.98,25.69c2.71,9.71,1.12,13.55-7.6,18.98c-4.13,2.57-8.34,5.14-13.26,6.06
	c-8.74-40.15-22.53-78.29-45.9-112.42c-2.29-3.34-12.54-16.86-9.79-8.66c-1.94-2.5-0.44-5.2-0.45-7.81
	c-0.02-4.9,0.23-10.14-4.46-13.13C517.39,93.93,519.91,103.04,515.88,103.06z"/>
<path class="st3" d="M589.93,136.35c-15.04-27.99-34.7-52.21-61.59-73.06c19.26-0.13,32.63,6.71,42.92,19.76
	c11.58,14.69,17.04,31.94,20.4,50.01C592.41,134.84,593.03,136.57,589.93,136.35z"/>
<path class="st4" d="M426.83,260.89c14.91,0,29.82,0,44.73,0c0,0.27,0.01,0.54,0.01,0.81c-15.02,0-30.04,0-45.07,0
	C426.61,261.43,426.72,261.16,426.83,260.89z"/>
<path class="st1" d="M512.98,144.55c-2.79,11.07-12,15-21.26,18.17c-25.48,8.71-51.82,9.7-78.36,7.13
	c-13.86-1.34-27.56-3.8-39.98-10.71c-11.8-6.57-14.45-13.54-10.12-26.34c10.58-31.3,39.96-52.72,73.16-53.31
	c32.74-0.59,63.06,19.58,74.81,49.85c0.87,2.24,1.22,4.69,1.81,7.04C512.42,139.09,512.59,141.82,512.98,144.55z"/>
<path class="st5" d="M513.16,102.14c0.58-3.86,1.39-9.01,7.73-8.41c6.41,0.6,7.21,5.66,8.06,10.37c0.85,4.76,1.07,10.7-1.21,14.86
	c-5.63,6.05-12.15,2.92-13.75-5.61C513.3,109.69,513.05,105.62,513.16,102.14z"/>
<path class="st1" d="M512.98,144.55c-2.4-2.75-2.44-5.48,0.06-8.19C513.57,139.35,513.39,141.68,512.98,144.55z"/>
<path class="st6" d="M456.42,112.59c7.73,18.11,16.1,23.11,33.83,20.01c3.64-0.64,5.45-0.33,6.89,3.2c1.51,3.72,0.76,6.32-2.58,8.28
	c-4.96,2.9-10.21,5.27-15.79,6.54c-27.98,6.4-56.03,6.78-84.06,0.28c-5.3-1.23-10.48-3-14.95-6.29c-2.61-1.92-2.7-4.35-1.55-7.24
	c1.26-3.15,3.35-2.69,5.96-2.21c15.18,2.78,24.73-2.08,31.67-16.24c1.33-2.7,1.85-5.1,5.62-2.62
	C433.73,124.38,445.17,121.71,456.42,112.59z"/>
<path class="st7" d="M437.56,95.17c2.88,0.2,9.51-1.84,9.5,2.57c-0.01,4.94-5.69,7.3-10.97,7.6c-1.06,0.06-2.22-0.08-3.19-0.48
	c-3.33-1.36-7.56-3.41-7.37-6.75c0.25-4.27,5.1-3.28,8.02-3.16"/>
<path class="st8" d="M400.97,106.54c1.25,7.42-1.41,11.88-7.44,14.05c-1.55,0.56-3.4,1.03-4.52-0.41c-1.35-1.74,0.46-2.99,1.51-4
	C393.93,112.88,397.48,109.74,400.97,106.54z"/>
<path class="st9" d="M472.1,105.62c5.76,2.72,9.53,6.49,13.02,10.74C477.45,119.76,473.58,116.8,472.1,105.62z"/>
</svg>
