<?xml version="1.0" encoding="utf-8"?>
<!-- Generator: Adobe Illustrator 26.5.0, SVG Export Plug-In . SVG Version: 6.00 Build 0)  -->
<svg version="1.1" id="图层_1" xmlns="http://www.w3.org/2000/svg" xmlns:xlink="http://www.w3.org/1999/xlink" x="0px" y="0px"
	 viewBox="0 0 870.2 585" style="enable-background:new 0 0 870.2 585;" xml:space="preserve">
<style type="text/css">
	.st0{fill:#4A6A90;}
	.st1{fill:#FEFEFE;}
	.st2{fill:#A4BDD3;}
	.st3{fill:#A3BCD2;}
	.st4{fill:#8EA9C2;}
	.st5{fill:#4A6A91;}
	.st6{fill:#4B6B91;}
</style>
<path class="st0" d="M408.4,572.1c-122.8,0-245.7-0.5-368.5,0.4C14.7,572.7,3.4,552,13.1,532c9.7-19.9,19.8-39.5,33.3-57.1
	c4.2-5.5,5.6-10.9,5.4-17.8c-2.5-95.6,26-180.4,90.7-251.6c31.3-34.4,69.1-59.2,116.6-65.4c32.8-4.3,63.2,2.3,90.6,21.3
	c5,3.4,9.5,4.6,15.6,3.8c97.5-13.4,181.9,16.3,255.4,79.4c63,54.2,104.8,122.9,132.3,200.6c2.7,7.5,6.1,14.2,10.9,20.5
	c18.5,24,31,50.9,38.9,80.1c3.9,14.5-3.7,25.2-18.7,26.3c-2.7,0.2-5.4,0.1-8.1,0.1C653.6,572.1,531,572.1,408.4,572.1z"/>
<path class="st1" d="M674.4,404.1c-63.4-12.5-111,13.3-149.4,61.6c-0.8,1-1.5,2.3-2.4,3.2c-1.8,1.7-3,5.8-5.9,3.9
	c-2.8-1.8-2.8-5.4-1.1-8.8c5.6-11.6,11.1-23.3,16.5-35c6.6-14.2,1.1-23.9-14.9-24.5c-19.9-0.7-39.9-0.3-59.8-0.2
	c-8.3,0-16.7-0.6-25,1c-12,2.3-16.6,10.8-11.4,22c5.6,12,11.3,23.8,17,35.7c1.6,3.2,2.2,6,0.7,9.9c-8.7,21.4-17.1,43-25.3,64.6
	c-2,5.4-5.1,6.5-10.6,7.3c-15.5,2.3-22.5-3.9-28.8-18.3c-21-47.5-52.3-87-98.2-113.5c-23.3-13.5-48.6-20.1-75.3-21.9
	c-2.3-3.5,0.1-6.2,1.6-8.9c11.5-20.2,25.3-38.7,40.6-56.1c2.4-2.8,4.9-6.9,10-4.6c2,2.8,1.5,6.1,1.6,9.3c0.4,9,3.6,14.2,9.8,15.3
	c5.7,1,10.4-2.4,14.2-10.3c1.6-12.1,0.3-24.2,0.7-36.2c0.1-4.7,0.3-9.2,4.8-12.1c13.2-8.6,26-17.7,39.9-25.1c3.8-2,7.7-3.7,11.5-5.6
	c25.8-12.2,52.9-18.9,81.3-21.5c44.2-4,85.2,6.5,124.7,25.1c7.3,3.4,14.1,7.7,21,12c2.6,1.6,5.3,3.5,4.9,7.1c-4.7,6.7-6,14-5.7,22
	c0.4,9.6,0.1,19.3,0.1,29c0,6.6,1.3,12.6,8.3,15c7.2,2.4,11.6-2.1,15-7.7c3-8.4,0.9-17,1.4-25.6c0.3-4.8-0.2-9.7,0.2-14.5
	c0.4-5.5,3.1-6.6,7.4-3.3c9,6.8,17.6,14.2,25.4,22.4c21.6,22.7,40.5,47.5,56.2,74.6c1.5,2.6,3.1,5.1,3.9,8
	C680.9,403.8,679.5,406,674.4,404.1z"/>
<path class="st2" d="M277.4,295.8c-0.3-7.4-3.8-14.4-9.6-15.1c-7.1-0.8-12.1,3.3-12.8,11.1c-0.6,6.7-0.1,13.4-0.3,20
	c-0.1,3.4,3.9,5.9,1,8.7c-3.5-0.1-8.6,3.8-10.5,5.9c-16,18.2-30.4,37.6-42.4,58.7c-1,1.8-1.5,4-2.2,6c-32.5-0.5-62.7,7.7-90.2,24.2
	c-1.7-1.3-1.5-2.3-1.1-3.3c33.4-73,80.6-134.6,149.3-177.8c40.6-25.5,84.9-40.8,133.4-43.8c72.2-4.5,135.6,18.3,192.5,60.8
	c56.3,42,95.7,97.4,125,160.6c0.6,1.2,1,2.5,1.4,3.8c0.1,0.5,0,1,0,2.8c-11.7-6.9-24.1-10.6-36.6-14.2c5.5,0.2,4.7-2.4,2.8-5.9
	c-8.5-15.6-18.3-30.4-29-44.5c-16.9-22.3-40.7-42.9-63.8-60.4c-1.9,7-1,13.5-1.5,20c-0.7,8.2,3.7,16.8,0.5,24.8
	c-2.8-2.8,1.4-6.6,1.3-10.1c-0.1-10,0-19.9-0.1-29.9c-0.1-13.7-2.9-15.2-16-18.4c-16.5-13.7-34.5-22.4-54.3-29.8
	c-27.1-10.1-55.2-15.4-84.2-14.6c-32.7,0.9-64.2,7.8-93.8,22.1c-18.1,7.8-34.5,18.3-50,30.3"/>
<path class="st2" d="M194.7,544.6c-49.6,0-99.2,0-148.7,0c-3.8,0-8.2,1-5-5.7c16.7-35.6,38.5-67.1,70.6-90.7
	c53.1-39.1,117.5-38.7,169.6,1.8c29.8,23.1,51.3,52.6,67.1,86.6c3.6,7.8,3.4,8-5.7,8C293.4,544.6,244.1,544.6,194.7,544.6z"/>
<path class="st2" d="M643.7,544.6c-39.9,0-79.8-0.1-119.6,0.1c-6.8,0-8.2-1.4-5.8-8c13.3-35.9,32.7-67.8,65.2-88.9
	c37.3-24.3,77-27.6,118.6-2c35.3,21.8,55.7,55.2,69.4,93.3c2.5,7-2.4,5.4-5.8,5.4C725,544.6,684.3,544.6,643.7,544.6z"/>
<path class="st2" d="M84.1,389.4c2.9-24.8,10.7-48.2,19.9-71.2c16.6-41.2,39.9-78.1,73.2-107.9c29.2-26.2,62.5-43.9,103-43.6
	c12.4,0.1,24.5,2.8,37,8.9c-10.3,4.1-19.7,7.7-28.9,11.6c-33.8,14.3-63.9,34.2-91.5,58.2c-46.4,40.3-81.3,89.3-108,144.3
	c-0.8,1.7-1.9,3.2-2.9,4.8C81.9,394.1,83.7,391.5,84.1,389.4z"/>
<path class="st2" d="M463.7,544.6c-5.6,0-11.3-0.1-16.9,0c-4.4,0.1-5.9-1.1-4-5.7c6.5-16.1,13-32.3,19.1-48.6
	c1.5-3.9,3.6-5.3,7.7-5.3c2.4,0,2.4,0,5.6,0c12.9-0.1,19.5,3.4,23.2,14.9c1.3,4.1,1.8,7.6,0,11.6c-4.1,9-7.7,18.3-10.2,27.9
	c-0.9,3.6-2.8,5.4-6.8,5.2C475.5,544.4,469.6,544.6,463.7,544.6z"/>
<path class="st3" d="M499.3,431.7c-2.3,5.5-4.5,9.5-5.8,13.8c-2.9,9.7-8.7,13.3-19,12.2c-5.8-0.6-9.5-1.8-11.5-7.4
	c-1.6-4.2-3.8-8.3-5.9-12.3c-2.2-4.1-2.2-6.5,3.4-6.4C473,431.8,485.6,431.7,499.3,431.7z"/>
<path class="st4" d="M84.1,389.4c0.3,1.8-0.2,3.9,1.9,5.1c-0.8,3-1.3,6.1-5.2,9.8C83.2,398.4,81.3,393.5,84.1,389.4z"/>
<path class="st5" d="M252.3,321.7c0-9.6,0-19.2,0.1-28.9c0.1-10,5.3-15.2,14.7-15c8.5,0.2,12.7,5.7,12.7,15.8
	c-0.1,14.7,0.1,29.4,0.1,44.1c-3.9,8.7-9.2,12.1-16.4,10.3c-7.9-1.9-11.2-7.4-11.1-15.3C252.5,329.1,252.4,325.4,252.3,321.7z"/>
<path class="st5" d="M569.2,277.9c14.7,0,17.7,3.2,17.7,18c-0.1,14,0.1,27.9,0.2,41.9c-3.8,8.5-8.9,11.8-15.9,10.5
	c-7.5-1.5-11.5-6.8-11.5-16c-0.1-12.9,0.1-25.9-0.1-38.8c-0.1-5.8,1.7-10.5,6.4-14.1C567,278.8,567.5,278,569.2,277.9z"/>
<path class="st6" d="M472.3,326.8c5.9,0,11.8-0.2,17.7,0c9.1,0.4,14.7,5.7,14.8,13.7c0.2,8.2-5,13.8-14.1,14.2
	c-12,0.5-24.1,0.5-36.2,0c-9.2-0.3-14.5-6-14.5-14c0-8,5.6-13.5,14.6-13.9C460.5,326.6,466.4,326.8,472.3,326.8z"/>
</svg>
