<?xml version="1.0" encoding="utf-8"?>
<!-- Generator: Adobe Illustrator 26.5.0, SVG Export Plug-In . SVG Version: 6.00 Build 0)  -->
<svg version="1.1" id="图层_1" xmlns="http://www.w3.org/2000/svg" xmlns:xlink="http://www.w3.org/1999/xlink" x="0px" y="0px"
	 viewBox="0 0 525.23 549.24" style="enable-background:new 0 0 525.23 549.24;" xml:space="preserve">
<style type="text/css">
	.st0{fill:#4A6A90;}
	.st1{fill:#DDE3EA;}
	.st2{fill:#FEE5C7;}
	.st3{fill:#4A6A91;}
	.st4{fill:#CEC4B9;}
	.st5{fill:#DACCBC;}
	.st6{fill:#FEFEFE;}
	.st7{fill:#A4BDD3;}
</style>
<path class="st0" d="M129.4,167.06"/>
<path class="st0" d="M128.84,169.82"/>
<path class="st0" d="M128.15,173.39"/>
<path class="st0" d="M130.69,161.06c3.87-16.95,8.61-33.63,14.74-49.9c0.03-0.33,0.05-0.67,0.08-1c2.62-6.44,5.4-12.82,8.38-19.11
	c6.56-13.72,14.32-26.69,23.84-38.59c1.06-1.33,2.33-2.52,3.1-4.08c3.82-3.86,7.21-8.13,11.22-11.82
	c13.77-12.67,29.13-22.57,47.55-27.01c19.25-4.64,38-2.96,56.23,4.81c9.91,4.22,18.86,9.92,27.05,16.86
	c11.8,10.01,21.76,21.66,30.21,34.6c3.81,5.69,7,11.75,10.48,17.64c3.22,6.5,6.44,13,9.29,19.67c1.08,3.56,2.98,6.81,3.84,10.45
	c3.49,9.69,6.34,19.59,9.48,29.39c3.81,13.35,6.24,26.98,8.52,40.65c2.18,14.6,3.57,29.28,4.32,44.02
	c0.22,4.25,0.52,8.51,0.31,12.77c-0.08,1.69,0.48,2.41,2.33,2.41c18.87-0.06,37.75-0.03,56.62-0.03
	c7.31,0.56,11.74,5.56,11.91,11.35c0.4,13.96,0.1,27.89-0.52,41.84c-0.97,22.07-3.02,44.04-5.79,65.95
	c-2.39,17.71-5.17,35.37-8.71,52.89c-1.04,5.13-2.18,10.24-3.28,15.36c-1.24,4.55-2.34,9.13-3.3,13.74
	c-2.19,6.81-3.75,13.8-5.99,20.6c-0.37,1.11-0.74,2.22-1.06,3.35c-2.56,7.77-5.32,15.48-8.73,22.93c-1.3,3.25-2.88,6.36-4.62,9.39
	l0,0c-0.9,1.17-1.26,2.66-2.2,3.8c-1.29,1.29-0.85,2.46-0.03,3.88c4.07,6.99,4.23,14.11,0.32,21.24c-1.43,2.61-3.45,4.41-6.64,4.51
	c-2.17,0.07-4.34,0.37-6.51,0.37c-101.56,0.02-203.12,0.02-304.68,0.02c-0.82,0-1.63,0.01-2.45-0.02
	c-8.94-0.24-12.94-3.95-13.86-12.88c-0.42-4.07-0.05-8.15,2.18-11.57c1.95-2.99,1.62-5.29-0.55-7.73
	c-3.35-5.65-5.93-11.68-8.41-17.74c-0.37-0.91-0.97-1.72-1.21-2.69c-4.56-11.57-7.97-23.49-11.14-35.49
	c-5.13-19.44-8.95-39.17-12.25-59c-0.91-7.32-2.25-14.58-3.14-21.91c-1.3-10.66-2.6-21.32-3.63-32.02
	c-0.85-8.92-1.51-17.85-2.12-26.78c-0.43-6.32-0.64-12.66-0.92-19c-0.4-9.07-0.32-18.14-0.24-27.21c0.03-3.69,0.23-7.38,1.14-11.01
	c0.98-3.94,3.58-5.69,7.36-6.11c1.26-0.14,2.54-0.05,3.81-0.05c18.34,0,36.68,0,55.02,0c3.43,0,3.59,0,3.69-3.64
	c0.16-5.44,0.26-10.87,0.6-16.3c0.89-14.2,2.27-28.34,4.6-42.38"/>
<path class="st0" d="M129.95,164.32"/>
<path class="st1" d="M50.63,256.61c0,8.75,0,17.5,0,26.25c-0.51-0.49-0.5-1.13-0.5-1.76c0-7.58,0-15.15,0-22.73
	C50.14,257.73,50.12,257.1,50.63,256.61z"/>
<path class="st1" d="M50.68,290.44c1.14,2.31,0.27,4.76,0.5,7.13C50.11,295.25,50.92,292.81,50.68,290.44z"/>
<path class="st1" d="M51.22,301.88c1.05,1.56,0.34,3.3,0.49,4.96C50.73,305.27,51.42,303.53,51.22,301.88z"/>
<path class="st1" d="M51.77,311.69c1.01,1.18,0.35,2.57,0.49,3.86C51.34,314.36,51.92,312.98,51.77,311.69z"/>
<path class="st1" d="M52.32,319.32c1.01,1.18,0.35,2.57,0.5,3.85C51.88,321.98,52.47,320.6,52.32,319.32z"/>
<path class="st1" d="M52.86,325.85c0.96,0.99,0.39,2.2,0.5,3.32C52.49,328.17,52.98,326.96,52.86,325.85z"/>
<path class="st1" d="M54.49,342.74c0.89,0.79,0.42,1.83,0.5,2.77C54.19,344.7,54.58,343.68,54.49,342.74z"/>
<path class="st1" d="M53.94,337.29c0.89,0.8,0.43,1.83,0.5,2.78C53.65,339.26,54.03,338.23,53.94,337.29z"/>
<path class="st1" d="M55.03,347.64c0.89,0.79,0.42,1.83,0.51,2.77C54.74,349.61,55.12,348.58,55.03,347.64z"/>
<path class="st2" d="M108.21,522.52c-4.1,0.01-5.21-1.44-4.25-5.55c0.62-2.64,2.16-4.75,3.93-6.73c2.51-2.81,2.74-6.21,0.33-8.82
	c-4.52-4.88-7.42-10.74-9.99-16.73c-9.22-21.52-14.9-44.11-19.75-66.93c-5.64-26.52-9.68-53.3-12.42-80.27
	c-1.32-12.97-2.27-25.97-2.92-38.99c-0.67-13.42-0.75-26.83-0.75-40.25c0-3.64,0.11-3.76,3.59-3.77c17.34-0.01,34.68-0.01,52.02,0
	c3.39,0,3.48,0.08,3.47,3.55c0,1.91,0.19,3.8,0.5,5.68c0.48,2.91,2.49,5.06,5.33,5.39c1.52,0.18,3.06,0.44,4.6,0.36
	c8.96-0.47,17.93,0.46,26.9-0.23c3.27-0.25,5.48-1.66,6.67-4.66c0.81-2.03,1.28-4.13,1.26-6.36c-0.04-3.72,0.01-3.72,3.84-3.73
	c0.36,0,0.73,0,1.09,0c59.38,0,118.75,0,178.13,0c0.82,0,1.64,0.04,2.45,0c1.75-0.1,2.44,0.72,2.43,2.44
	c-0.01,2.53-0.23,5.07,0.65,7.55c1.14,3.2,3.06,4.54,6.5,4.75c8.16,0.49,16.33,0.12,24.49,0.27c1.91,0.04,3.81-0.19,5.69-0.37
	c4.47-0.43,7.27-3.71,7.33-8.3c0.09-6.33,0.09-6.33,6.5-6.33c16.25,0,32.5,0,48.75,0c4.12,0,4.09,0.01,4.13,4.01
	c0.13,12.88,0.08,25.77-0.61,38.63c-0.81,15.09-1.97,30.16-3.61,45.19c-2.7,24.88-6.49,49.58-11.58,74.08
	c-1.59,7.63-3.26,15.25-5.27,22.79c-0.23,0.87-0.47,1.74-0.44,2.66c-4.53,17.97-9.74,35.69-18.65,52.09
	c-1.26,2.31-2.68,4.51-4.41,6.53c-3.49,4.08-3.5,6.44,0,10.49c1.82,2.11,3.22,4.4,3.51,7.22c0.37,3.56-0.78,4.81-4.3,4.81
	c-13.61,0-27.22,0-40.83,0c-35.02,0-70.04,0-105.07-0.01"/>
<path class="st2" d="M386.75,215.26"/>
<path class="st2" d="M387.92,254.72c0.03,2.2-0.63,3.11-2.95,3.06c-5.35-0.12-10.71-0.1-16.06-0.01c-2.16,0.04-2.83-0.82-2.84-2.9
	c-0.03-7.53,0.1-15.05-0.19-22.58c-0.47-12.03-0.94-24.06-2.01-36.06c-1.37-15.43-3.33-30.77-6.12-46.02
	c-4.18-22.82-10.16-45.1-19.66-66.32c-5.16-11.53-11.46-22.44-19.43-32.28c-6.66-8.22-14.39-15.28-23.53-20.7
	c-0.46-0.27-0.94-0.56-1.5-0.63c-5.29-2.54-10.65-4.88-16.41-6.17c-7.69-1.73-15.42-2.37-23.33-1.65c-8.17,0.74-15.81,3.1-23.3,6.19
	c-5.92,2.46-11.07,6.14-15.86,10.3c-17.24,14.97-27.79,34.35-36.01,55.21c-9.16,23.25-14.42,47.49-18.03,72.14
	c-2.57,17.57-4.14,35.23-4.95,52.97c-0.54,11.87-0.78,23.74-0.79,35.62c0,1.07,0.53,2.5-1.28,2.82c-6.57-0.01-13.14,0.25-19.71-0.14
	c-1.2-0.6-0.75-1.72-0.75-2.64c-0.03-5.66-0.03-11.32-0.01-16.98c0.06-3.19,0.08-6.3,0.29-9.45c0.23-1.53,0.19-2.86,0.26-4.29
	c0.05-1.86,0.12-3.38,0.29-5.07c0.07-1.2,0.2-2.1,0.26-3.15c0.07-1.46,0.14-2.65,0.29-3.98c0.09-1.12,0.14-1.85,0.27-2.63
	c0.11-1.45,0.13-2.34,0.3-3.5c0.07-1.59,0.3-3.28,0.61-5.21c0-0.68,0.08-1.16,0.21-1.73c0.2-1.26,0.09-2.06,0.31-3.07
	c1.5-12.66,3.71-25.2,6.68-37.6c2.08-11.13,5.51-21.9,9.02-32.64c1.52-4.64,3.25-9.21,5.07-13.74c0.78-2.98,2.17-5.74,3.4-8.54
	c3.74-8.54,7.98-16.84,12.75-24.85c7.67-12.89,16.62-24.76,27.75-34.9c4.95-4.36,10.05-8.53,15.65-12.06
	c14.73-9.27,30.73-13.92,48.19-13.22c1.9,0.08,3.75,0.65,5.67,0.55c6.33,1.06,12.56,2.53,18.54,4.9
	c10.01,3.97,19.01,9.57,27.21,16.56c10.68,9.11,19.56,19.77,27.25,31.45c8.85,13.43,15.86,27.82,21.64,42.8
	c5.01,13.01,9.1,26.32,12.3,39.89c1.18,4.99,2.19,10.02,3.38,15.01v0c0.05,1.12,0.04,2.25,0.37,3.34
	c2.16,11.82,3.78,23.7,4.97,35.65"/>
<path class="st2" d="M387.29,223.45"/>
<path class="st0" d="M119.85,454.42c-2.05,5-6.25,4.83-10.34,0c-2.34-6.02-3.65-12.34-5.15-18.58
	C98,409.3,93.21,382.46,89.57,355.42c-2.57-19.11-4.75-38.26-5.98-57.52c-0.2-3.09-0.22-6.16-0.21-9.24
	c0.01-3.05,2.11-5.58,4.63-5.83c3.17-0.32,5.64,1.4,6.3,4.67c0.92,4.54,0.9,9.18,1.25,13.78c1.03,13.72,2.41,27.4,4.09,41.06
	c2.67,21.68,6.11,43.23,10.35,64.65c2.64,13.34,5.62,26.61,9.26,39.71C119.97,449.24,120.56,451.78,119.85,454.42z"/>
<path class="st3" d="M117.16,477.27c0.37-4.14,2.09-6.91,4.56-7.3c2.44-0.39,5.15,1.83,6.67,5.46c1.3,3.09,2.6,6.19,4.47,9
	c0.99,1.5,2.1,2.93,2.55,4.74c0.7,2.82-0.19,5.11-2.59,6.49c-2.2,1.26-4.82,0.98-6.7-0.96c-3.02-3.09-4.84-6.96-6.57-10.85
	C118.61,481.72,117.58,479.6,117.16,477.27z"/>
<path class="st4" d="M117.16,477.27c2.19,4.94,4.08,10.03,7.1,14.57c0.76,1.14,1.5,2.29,2.65,3.04c1.97,1.29,4.04,1.53,6.09,0.17
	c2.2-1.46,2.63-3.64,1.93-5.98c-0.48-1.62-1.36-3.11-2.07-4.66c4.69,4.28,4.36,9.95-0.67,12.06c-2.05,0.86-4.16,0.64-5.56-0.81
	C121.65,490.53,118.5,484.34,117.16,477.27z"/>
<path class="st5" d="M154.18,257.21c-0.45,0.58-1.09,0.54-1.72,0.54c-5.57,0-11.14,0-16.72,0c-0.63,0-1.27,0.04-1.72-0.54
	C140.74,257.21,147.46,257.21,154.18,257.21z"/>
<path class="st6" d="M309.99,59.98c1.83,2.54,3.66,5.08,5.49,7.62c10.85,16.72,18,35.03,23.42,54.11
	c3.91,13.75,6.83,27.71,9.04,41.81c1.49,9.53,2.67,19.11,3.51,28.74c1.01,11.53,1.83,23.05,2.26,34.62
	c0.17,4.52,0.19,9.04,0.42,13.56c0.07,1.51-0.46,2.09-2.02,2.08c-8.25-0.05-16.51-0.1-24.76,0.03c-2.34,0.04-2.11-1.33-2.13-2.79
	c1.64-8.2,2.45-16.45,2.31-24.83c-0.11-6.88-1.33-13.5-3.89-19.87c-2.41-7.21-7.38-12.12-14.19-15.11c-8.33-3.66-16.8-2.56-25.17,0
	c-12.56,3.85-23.36,10.91-33.72,18.73c-5.7,4.31-11.02,9.06-16.3,13.86c-7.01,6.31-13.45,13.18-19.67,20.27
	c-2.56,2.92-5.07,5.9-7.58,8.86c-0.67,0.79-1.55,0.82-2.48,0.82c-11.71-0.01-23.42-0.03-35.13,0.02c-1.67,0.01-2.18-0.57-2.19-2.21
	c-0.04-12.14,0.71-24.23,1.57-36.33c0.59-8.38,1.32-16.75,2.36-25.08c1.09-8.68,2.47-17.33,3.93-25.96
	c1.86-10.96,4.58-21.74,7.43-32.48c3.5-12.6,8.02-24.83,13.75-36.58c6.44-13.21,14.52-25.29,25.59-35.16
	c0.87-0.78,1.76-1.54,2.64-2.31c4.67-3.1,9.23-6.36,14.52-8.44c9.03-3.56,18.29-4.68,27.93-3.74c11.1,1.07,20.73,5.48,29.45,12.17
	C301.51,50.32,305.86,55.04,309.99,59.98z"/>
<path class="st7" d="M266.95,201.63c5.79-3.55,11.6-7.04,18.06-9.32c3.59-1.27,7.23-2.4,11.03-2.61c9.09-0.5,15,3.53,17.74,12.36
	c2.21,7.14,2.67,14.49,1.8,21.97c-0.72,6.18-1.21,12.39-2.88,18.42c-29.94,0-59.87,0-90.54,0
	C236.03,227.14,250.22,213.02,266.95,201.63z"/>
<path class="st3" d="M193.83,192.86c-0.04-1.11,0.75-2.66,1.64-4.13c2.9-4.85,6.38-9.24,10.58-13.03c1.15-1.04,2.43-1.91,3.98-2.25
	c2.44-0.54,4.57,0.05,5.93,2.22c1.35,2.15,1.29,4.58-0.53,6.27c-4.76,4.41-8.7,9.43-12.19,14.87c-1.34,2.09-3.63,2.72-6.03,1.83
	C194.92,197.8,193.87,195.99,193.83,192.86z"/>
<path class="st3" d="M232.59,195.57c-3.63,1.99-6.39,4.98-9.06,8.04c-0.72,0.83-1.41,1.65-2.36,2.21c-1.96,1.15-4,1.35-5.84-0.05
	c-1.97-1.51-2.3-3.68-1.38-5.88c0.62-1.47,1.63-2.79,2.46-4.17c5.57-5.79,11.75-10.79,18.88-14.57c1.04-0.55,2.1-1.08,3.21-1.46
	c2.92-1,5.89,0.15,6.97,2.6c1.05,2.36,0.05,5.18-2.54,6.79c-2.54,1.58-5.19,2.99-7.75,4.54
	C234.26,194.17,233.45,194.91,232.59,195.57z"/>
</svg>
